<svg xmlns="http://www.w3.org/2000/svg" width="16" height="16" viewBox="406.000 779.400 16 16" fill="none"><path d="M413.525 781.451C413.675 780.992 414.325 780.992 414.475 781.451L415.693 785.171C415.76 785.376 415.951 785.515 416.167 785.516L420.081 785.524C420.565 785.525 420.765 786.143 420.375 786.428L417.214 788.736C417.039 788.863 416.966 789.088 417.033 789.293L418.234 793.019C418.382 793.479 417.856 793.861 417.465 793.577L414.293 791.284C414.118 791.157 413.882 791.157 413.707 791.284L410.535 793.577C410.144 793.861 409.618 793.479 409.766 793.019L410.967 789.293C411.034 789.088 410.961 788.863 410.786 788.736L407.625 786.428C407.235 786.143 407.435 785.525 407.919 785.524L411.833 785.516C412.049 785.515 412.24 785.376 412.307 785.171L413.525 781.451Z" fill="#003BE2"/></svg>